<?xml version="1.0" encoding="utf-8"?>
<!-- Generator: Adobe Illustrator 21.0.0, SVG Export Plug-In . SVG Version: 6.00 Build 0)  -->
<svg version="1.0" id="Layer_1" xmlns="http://www.w3.org/2000/svg" xmlns:xlink="http://www.w3.org/1999/xlink" x="0px" y="0px"
	 width="128px" height="109.8px" viewBox="0 0 128 109.8" enable-background="new 0 0 128 109.8" xml:space="preserve">
<g>
	<path fill="#FFFFFF" d="M42.6,25.1c3.8,0.1,7.7,0,11.5,0c0.3,1,0,2.4,0.9,3.2c4.3,0.5,8.7,0,13,0.2c2.3-0.1,4.6,0.3,6.8-0.5
		c0.2-1,0.3-2,0.4-2.9c3.9,0,7.7,0,11.6,0c2.2,5.1,4.6,10.2,6.8,15.3c-19.3,0-38.6,0-57.9,0C38,35.4,40.2,30.2,42.6,25.1z"/>
	<path fill="#FFFFFF" d="M12.3,30.7c2,0.1,4.2-0.4,6,0.8c-1.8,0.2-3.7,0-5.4,0.5c-3.1,2.3-4.7,6.1-7.7,8.6l-0.7,0.6
		C6.3,37.1,9.9,34.3,12.3,30.7z"/>
	<path fill="#FFFFFF" d="M34.6,42.6c0.6-1.4,2.1-1.3,3.4-1.3c18.7,0.1,37.4-0.1,56.2,0.1c0.1,0.4,0.4,1.2,0.6,1.5
		c-17,0.1-33.9,0-50.9,0C40.8,43.1,37.7,43,34.6,42.6z"/>
	<path fill="#FFFFFF" d="M95.1,41.4c3.1,0.3,6.7-0.9,9.3,1.3c-2.8,0.4-5.7,0.4-8.6,0.3C95.5,42.4,95.3,41.9,95.1,41.4z"/>
	<path fill="#FFFFFF" d="M30.7,57.7c21.5-0.2,42.9,0,64.4-0.1c1.4,0,2.8,0.2,3.9,1c-1.8,11.4-2.9,22.9-5,34.3
		c-9.9-2.3-20-3.1-30.1-3c-9.6,0.1-19.2,0.8-28.5,3.1c-1.7-8.1-2.4-16.4-3.6-24.6c-0.3-2.9-0.9-5.7-1.1-8.6
		C30.7,59.1,30.7,58.2,30.7,57.7 M53.3,66.3c-0.4,3.7,0.5,7.3,0.8,11c0.3,2,0.1,4.2,1.4,5.8c0-3.7-0.7-7.4-1-11.1
		C54.4,70,54.1,68.1,53.3,66.3 M74.8,73c-0.3,3.3-0.9,6.7-0.9,10c1.2-1.7,1.1-3.9,1.4-5.9c0.3-3.6,1.1-7.1,0.8-10.8
		C75,68.4,75,70.7,74.8,73 M42.3,66.7c0.6,5.3,2,10.5,2.9,15.8c0.2,0,0.7-0.1,0.9-0.1c-0.8-4.2-1.7-8.5-2.5-12.7
		C43.4,68.5,43,67.5,42.3,66.7 M64.2,74.8c0.2,2.7-0.5,5.7,0.6,8.3c0.4-5.5,0.4-11.1,0.1-16.6C63.6,69,64.3,72,64.2,74.8 M86.7,66.5
		c-0.9,2.5-1.3,5.2-1.8,7.8c-0.5,2.9-1.3,5.8-1.4,8.7c1.8-2.9,1.6-6.4,2.5-9.6C86.3,71.1,87.4,68.8,86.7,66.5z"/>
	<path fill="#35979C" d="M94.3,10.7c0-2.1-0.5-4.6,1.4-6.2c0.6,2,0.6,4.1,0.6,6.2c1.9,0.3,4.4-0.8,5.7,0.9c-1.2,1.7-3.9,0.7-5.7,1
		c-0.1,2,0.3,4-0.6,5.9c-2.2-1.1-1.1-3.9-1.4-5.8c-1.7,0-3.5,0.1-5.2-0.2c-0.1-0.3-0.2-1-0.2-1.4C90.6,10.5,92.5,10.7,94.3,10.7z"/>
	<path fill="#35979C" d="M30.6,11.5c1.6-0.9,4.1,0,4.1,2c0.2,1.9-1.8,3.4-3.5,2.7C29,15.7,28.8,12.5,30.6,11.5 M31,11.8
		c-1.5,0.6-1.6,2.9-0.3,3.7c1.4,1.1,3.7-0.3,3.4-2C34,12,32.3,11.3,31,11.8z"/>
	<path fill="#35979C" d="M54.1,24.2c0.2-1.1,0-2.4,0.8-3.2c3.2-0.3,6.3-0.1,9.5-0.1c3.3,0.1,6.7-0.2,10,0.1c0.6,1,0.5,2.2,0.7,3.3
		c4,0.1,8-0.2,12,0.1c2.8,5.2,4.9,10.8,7.4,16.1c2.7,0,5.4-0.2,8.1,0.1c1.2,0.1,2.1,1,2.4,2.1c0,3.8,0.3,7.6-0.2,11.3
		c-0.6,2.1-3.3,1.7-4.9,2.1c0,0.4-0.1,1.1-0.2,1.4c-1.3,10.2-2.8,20.4-4.1,30.7c-0.2,1.5-0.4,3-0.9,4.4c-1.2,2.6-3.9,4.4-6.9,4.2
		c-13.9,0-27.9,0-41.8,0c-2.5,0-5.1,0.2-7.5-0.4c-1.8-0.5-3.1-2-4.1-3.5c-0.9-2.4-0.9-5.1-1.3-7.6c-1.4-9.7-2.6-19.4-4-29.1
		c-1.8-0.2-4.5-0.2-5-2.5c-0.5-3-0.2-6.1-0.2-9.1c-0.1-1.6,0.5-3.6,2.2-4c2.8-0.5,5.7-0.1,8.5-0.2c2.3-5.4,4.8-10.7,7.1-16.2
		C45.9,24.2,50,24.3,54.1,24.2 M55.3,22c-0.2,1.8-0.6,3.9,0.3,5.5c6.1,0.3,12.3,0.1,18.4,0.1c0.1-1.9,0.1-3.9,0-5.8
		C67.9,21.9,61.5,21.4,55.3,22 M42.6,25.1c-2.4,5.1-4.6,10.2-6.9,15.3c19.3,0.1,38.6,0,57.9,0c-2.2-5.1-4.5-10.2-6.8-15.3
		c-3.9,0-7.7,0-11.6,0c-0.1,1-0.2,2-0.4,2.9c-2.2,0.8-4.5,0.4-6.8,0.5c-4.3-0.1-8.7,0.3-13-0.2c-0.9-0.8-0.6-2.2-0.9-3.2
		C50.3,25.2,46.5,25.2,42.6,25.1 M26.6,41.6c-1.4,0.3-1.7,2-1.7,3.2c-0.1,2.7-0.2,5.5,0.1,8.3c0.1,0.9,0.9,1.5,1.5,2.2
		c1.2-0.1,2.3-0.1,3.5-0.1c0.2,1.5,0.4,3.1,0.8,4.6c0.1,2.9,0.8,5.8,1.1,8.6c1.2,8.2,1.9,16.5,3.6,24.6c9.3-2.2,18.9-2.9,28.5-3.1
		c10.1,0,20.3,0.7,30.1,3c2.1-11.4,3.2-22.9,5-34.3c0.1-1.1,0.2-2.2,0.3-3.4c1.6-0.3,4.4,0.4,4.9-1.7c0.4-3.6,0-7.2,0.2-10.8l-0.1,0
		c-2.6-2.2-6.2-1-9.3-1.3c0.2,0.5,0.5,1.1,0.7,1.6c0.6,1.3,1.2,2.6,1.8,4c1,0.2,2.1,0.4,3.1,0.6c-2.7,0.7-5.6,0.6-8.3,0.1
		c1.4-0.3,2.8-0.5,4.1-0.7c-0.6-1.3-1.2-2.6-1.8-4c-0.2-0.4-0.5-1.2-0.6-1.5c-18.7-0.1-37.4,0-56.2-0.1c-1.3,0-2.8-0.1-3.4,1.3
		c-0.5,1.5-1.2,2.9-1.8,4.4c1.1,0.1,2.3,0.3,3.4,0.5c-2.6,0.8-5.4,0.8-8-0.1c1.2-0.2,2.5-0.3,3.7-0.5c0.6-1.3,1.1-2.6,1.6-3.9
		c0.3-0.6,0.5-1.1,0.8-1.7C31.7,41.4,29.1,41.1,26.6,41.6 M48.8,91.6c-4.3,0.5-8.5,1.1-12.6,2.2c1.5,1.3,3.3,2.4,5.4,2.2
		c15.5,0,31,0,46.6,0c2,0.2,3.7-0.9,5.1-2.1c-4.4-1.2-8.8-1.9-13.3-2.3C69.5,90.5,59.1,90.6,48.8,91.6z"/>
	<path fill="#35979C" d="M3.3,40.3C6.2,36.8,9,33.2,12,29.7c2.2,0.1,4.4,0,6.5,0.4c0.9,2,1.5,4.2,1.7,6.4c-0.6,1.4-1.8,2.5-2.7,3.7
		c-1.9,2.1-3.4,4.5-5.4,6.5c-0.5,0.7-1.2,0-1.6-0.3C8,44.4,5.6,42.4,3.3,40.3 M12.3,30.7c-2.4,3.6-6,6.4-7.8,10.5l0.7-0.6
		c2,1.9,4.1,3.6,6.3,5.3c2.3-2.8,4.6-5.5,6.9-8.3c1.6-1.7,0.1-4,0-6C16.5,30.3,14.3,30.8,12.3,30.7z"/>
	<path fill="#35979C" d="M113.6,65c0.7-0.9,2.3-0.6,2.6,0.5c0,1-0.3,1.9-0.5,2.8c1.4-0.2,3.4-1,4.1,0.8c0.9,3.2,2.4,6.4,2.5,9.8
		c-3.5,2.1-7.6,2.6-11.4,4c-2.1,0.5-2.5-1.9-3-3.3c-0.7-2.4-1.7-4.7-1.9-7.2c0.3-1.4,2.1-1.4,3.2-1.9c-1-0.8-3.4-2-1.9-3.4
		c1.9-1.6,3.7,1.2,5,2.4C112.7,68,112.8,66.3,113.6,65 M113.2,68.9c1.5-0.8,2.3-2.3,2.1-4C114,65.9,113.5,67.4,113.2,68.9
		 M107.4,67.4c0.7,1.6,2.3,2.2,3.9,2.2C110.2,68.5,109,67.5,107.4,67.4 M113.1,70.2c0.3,1,0.6,1.9,0.9,2.9c1.9-0.6,3.8-1.2,5.7-1.8
		c-0.5-0.7-0.6-2.1-1.5-2.4C116.3,69,114.7,69.6,113.1,70.2 M107.3,72.3c-0.7,0.8,0,2,0,2.9c1.9-0.6,3.9-1.2,5.8-1.9
		c-0.3-0.9-0.6-1.8-0.8-2.8C110.6,71,108.8,71.3,107.3,72.3 M114.2,74c0.6,2.1,1.3,4.2,2,6.3c1.7-0.5,3.4-0.9,5-1.8
		c0.3-2.1-0.9-4.1-1.4-6.2C117.9,72.8,116.1,73.4,114.2,74 M108.7,75.8l-0.9-0.5c0.4,2.4,1,4.7,2.3,6.7v0.1c1.7-0.5,3.4-1,5.1-1.6
		c-0.6-2.1-1.2-4.3-1.9-6.4C111.8,74.7,110.2,75.2,108.7,75.8z"/>
	<path fill="#35979C" d="M74.8,73c0.3-2.3,0.3-4.6,1.3-6.7c0.3,3.6-0.5,7.2-0.8,10.8c-0.3,2-0.1,4.2-1.4,5.9
		C73.8,79.6,74.5,76.3,74.8,73z"/>
	<path fill="#35979C" d="M42.3,66.7c0.8,0.8,1.2,1.8,1.3,2.9c0.8,4.3,1.6,8.5,2.5,12.7c-0.2,0-0.7,0.1-0.9,0.1
		C44.2,77.2,42.9,72,42.3,66.7z"/>
	<path fill="#35979C" d="M86.7,66.5c0.7,2.3-0.4,4.6-0.7,6.9c-0.9,3.2-0.7,6.7-2.5,9.6c0-3,0.9-5.8,1.4-8.7
		C85.4,71.7,85.7,69,86.7,66.5z"/>
	<path fill="#35979C" d="M16.4,73.1c0.2,0,0.5,0,0.7,0c0.1,0.8,0.1,1.6,0.2,2.4c1,0.2,2.1,0.5,3.1,0.8c-1,0.1-2.1,0.3-3.1,0.4
		c-0.1,1.1-0.2,2.1-0.4,3.2c-0.4-1-0.6-2.1-0.8-3.2c-1-0.1-1.9-0.3-2.9-0.4c1-0.3,2-0.5,3-0.8C16.2,74.7,16.3,73.9,16.4,73.1z"/>
	<g id="_x23_e5e9ebff">
		<path fill="#AEE5E5" d="M55.3,22c6.2-0.6,12.5-0.1,18.8-0.2c0.1,1.9,0,3.9,0,5.8c-6.1,0-12.3,0.2-18.4-0.1
			C54.7,25.9,55.1,23.8,55.3,22 M61.3,24.9c-0.2,0.8,1.3,1,1.6,0.3C63.1,24.4,61.6,24.2,61.3,24.9 M65.1,25.2
			c2.5,0.3,5.1,0.7,7.4-0.3C70.1,24.6,67.4,24.1,65.1,25.2z"/>
	</g>
	<g id="_x23_a0a7abff">
		<path fill="#35979C" d="M105.3,22.4c0.3,0.9,0.5,1.8,0.8,2.7c0.7,0,1.5,0,2.2,0l-0.1,0.8c-0.8,0-1.6,0-2.4,0c0,0.8,0,1.6,0,2.4
			l-0.9,0c0-0.8,0-1.6,0-2.4c-0.9-0.1-1.8-0.2-2.8-0.3c0.9-0.3,1.8-0.6,2.7-0.8C105,24.1,105.1,23.3,105.3,22.4z"/>
	</g>
	<g id="_x23_a0a9aeff">
		<path fill="#35979C" d="M61.3,24.9c0.3-0.6,1.8-0.5,1.6,0.3C62.5,25.8,61.1,25.7,61.3,24.9z"/>
	</g>
	<g id="_x23_a0a9acff">
		<path fill="#35979C" d="M65.1,25.2c2.3-1.1,5-0.6,7.4-0.3C70.2,25.9,67.6,25.5,65.1,25.2z"/>
	</g>
	<g id="_x23_e5e9eaff">
		<path fill="#AEE5E5" d="M12.8,32c1.8-0.5,3.6-0.4,5.4-0.5c0.1,2,1.6,4.3,0,6c-2.3,2.8-4.6,5.5-6.9,8.3c-2.2-1.7-4.3-3.4-6.3-5.3
			C8.2,38.1,9.7,34.3,12.8,32 M13.9,33c-1.6,0.7-1.2,3.3,0.5,3.5c1.4,0.4,3-1.3,2.1-2.6C16.2,32.8,14.8,32.5,13.9,33z"/>
		<path fill="#AEE5E5" d="M32.8,47c0.7-1.4,1.3-2.9,1.8-4.4c3.1,0.4,6.2,0.5,9.3,0.4c17,0,33.9,0,50.9,0c0.6,1.3,1.2,2.7,1.8,4
			c-1.4,0.2-2.8,0.4-4.1,0.7c2.7,0.6,5.6,0.7,8.3-0.1c-1-0.2-2.1-0.4-3.1-0.6c-0.6-1.3-1.2-2.6-1.8-4c2.9,0.1,5.7,0,8.6-0.3l0.1,0
			c-0.2,3.6,0.2,7.2-0.2,10.8c-0.5,2.1-3.3,1.4-4.9,1.7c-0.1,1.1-0.2,2.2-0.3,3.4c-1.1-0.8-2.5-1-3.9-1c-21.5,0.2-42.9-0.1-64.4,0.1
			c0,0.5,0,1.4,0,1.9c-0.3-1.5-0.5-3-0.8-4.6c-1.2,0-2.3,0.1-3.5,0.1c0.2-3.7-0.6-7.6,0.7-11.2c1.6-1.6,4.3-0.7,6.4-0.9
			c-0.5,1.3-1.1,2.6-1.6,3.9c-1.2,0.1-2.5,0.3-3.7,0.5c2.6,0.9,5.4,0.9,8,0.1C35,47.3,33.9,47.1,32.8,47 M37,55.7
			c3,0.4,6.1,0.2,9.2,0.3c10,0,20,0,30.1,0c3.1,0,6.1,0.2,9.2-0.3c-2.6-0.9-5.3-0.6-8-0.6c-12.2,0-24.4,0-36.6,0
			C39.5,55,38.2,55.3,37,55.7 M88,55.7c2.7,0.4,5.5,0.4,8.2,0C93.6,54.7,90.6,54.6,88,55.7z"/>
		<path fill="#AEE5E5" d="M88,96.9c3,0.2,5.6-1.6,6.9-4.2c1.9,1,4,1.8,5.7,3.1c0.8,0.8,1.8,2.1,1.1,3.2c-1.3,2.2-3.9,3.1-6.2,3.9
			c-8.3,2.5-17,3.2-25.6,3.5c-5.7,0.4-11.5-0.1-17.2-0.4c-7.5-0.7-15.1-1.3-22.1-4.5c-1.7-0.8-4-2.4-3-4.6c1.5-2.3,4.4-3,6.9-3.9
			c1,1.5,2.3,3,4.1,3.5c2.5,0.6,5,0.4,7.5,0.4C60.1,96.9,74.1,96.9,88,96.9z"/>
	</g>
	<g id="_x23_aab2b6ff">
		<path fill="#35979C" d="M13.9,33c0.9-0.5,2.3-0.2,2.6,0.9c0.9,1.3-0.7,3-2.1,2.6C12.7,36.3,12.3,33.7,13.9,33 M13.8,34.3
			c-0.3,1.1,0.8,1.1,1.6,1.2c0-0.5,0.1-1.6,0.2-2.1C15,33.7,14.4,34,13.8,34.3z"/>
	</g>
	<g id="_x23_d7e0e3ff">
		<path fill="#D7E0E3" d="M13.8,34.3c0.6-0.3,1.2-0.7,1.8-1c0,0.5-0.1,1.6-0.2,2.1C14.6,35.5,13.6,35.5,13.8,34.3z"/>
	</g>
	<g id="_x23_fffefeff">
		<path fill="#FFFEFE" d="M26.6,41.6c2.5-0.5,5.2-0.2,7.7-0.2c-0.3,0.6-0.5,1.1-0.8,1.7c-2.1,0.2-4.7-0.7-6.4,0.9
			c-1.3,3.6-0.4,7.5-0.7,11.2c-0.5-0.7-1.4-1.2-1.5-2.2c-0.3-2.7-0.2-5.5-0.1-8.3C24.9,43.5,25.1,41.9,26.6,41.6z"/>
	</g>
	<g id="_x23_e4e9eaff">
		<path fill="#AEE5E5" d="M105.2,42.8c2.6,2.3,1.6,6,1.8,9.1c-0.2,1.8,0.4,4.5-1.7,5.5c-1.8,0.5-3.7,0.3-5.5,0.3
			c0-0.4,0.1-1.1,0.2-1.4c1.7-0.4,4.3-0.1,4.9-2.1C105.6,50.3,105.2,46.5,105.2,42.8z"/>
	</g>
	<g id="_x23_9ca9b1ff">
		<path fill="#35979C" d="M37,55.7c1.2-0.4,2.5-0.7,3.9-0.7c12.2,0.1,24.4,0,36.6,0c2.7,0,5.4-0.3,8,0.6c-3,0.5-6.1,0.3-9.2,0.3
			c-10,0-20,0-30.1,0C43.1,55.9,40,56.1,37,55.7z"/>
	</g>
	<g id="_x23_9ca8afff">
		<path fill="#35979C" d="M88,55.7c2.6-1.1,5.6-1,8.2,0C93.5,56.1,90.7,56.1,88,55.7z"/>
	</g>
	<g id="_x23_e8edf0ff">
		<path fill="#E8EDF0" d="M113.2,68.9c0.3-1.5,0.8-3,2.1-4C115.5,66.6,114.7,68.1,113.2,68.9z"/>
	</g>
	<g id="_x23_abb1b6ff">
		<path fill="#35979C" d="M53.3,66.3c0.7,1.8,1.1,3.7,1.2,5.6c0.3,3.7,1,7.4,1,11.1c-1.4-1.6-1.1-3.8-1.4-5.8
			C53.8,73.6,53,69.9,53.3,66.3z"/>
	</g>
	<g id="_x23_a0a5afff">
		<path fill="#35979C" d="M64.2,74.8c0.2-2.8-0.6-5.8,0.7-8.4c0.3,5.5,0.4,11.1-0.1,16.6C63.6,80.4,64.3,77.5,64.2,74.8z"/>
	</g>
	<g id="_x23_eaf1f3ff">
		<path fill="#EAF1F3" d="M107.4,67.4c1.6,0.1,2.8,1.1,3.9,2.2C109.7,69.5,108.1,69,107.4,67.4z"/>
	</g>
	<g id="_x23_e8ebedff">
		<path fill="#AEE5E5" d="M113.1,70.2c1.6-0.5,3.3-1.2,5-1.3c0.9,0.3,1,1.6,1.5,2.4c-1.9,0.6-3.8,1.2-5.7,1.8
			C113.7,72.1,113.4,71.1,113.1,70.2z"/>
	</g>
	<g id="_x23_e5e9ecff">
		<path fill="#AEE5E5" d="M119.8,69.1c0.9,0.6,1.8,1.3,2.1,2.5c0.9,2.7,1.9,5.3,2.2,8.1c-2,1.5-4.5,1.8-6.8,2.6
			c-2,0.6-4.2,1.9-6.3,0.7c3.8-1.4,7.9-2,11.4-4C122.2,75.5,120.7,72.3,119.8,69.1z"/>
	</g>
	<g id="_x23_ebeeefff">
		<path fill="#AEE5E5" d="M107.3,72.3c1.5-1,3.3-1.3,4.9-1.8c0.3,0.9,0.5,1.8,0.8,2.8c-1.9,0.7-3.8,1.3-5.8,1.9
			C107.2,74.2,106.6,73.1,107.3,72.3z"/>
	</g>
	<g id="_x23_e6e9ebff">
		<path fill="#AEE5E5" d="M114.2,74c1.8-0.6,3.7-1.2,5.6-1.7c0.5,2,1.7,4,1.4,6.2c-1.5,0.9-3.3,1.3-5,1.8
			C115.6,78.2,114.9,76.1,114.2,74z"/>
	</g>
	<g id="_x23_e5e8ebff">
		<path fill="#AEE5E5" d="M108.7,75.8c1.5-0.6,3.1-1.1,4.6-1.6c0.7,2.1,1.3,4.2,1.9,6.4c-1.7,0.5-3.4,1-5.1,1.6V82
			C110.2,79.9,109.9,77.7,108.7,75.8z"/>
	</g>
	<g id="_x23_f6f9faff">
		<path fill="#F6F9FA" d="M107.8,75.3l0.9,0.5c1.2,1.8,1.5,4,1.4,6.2C108.8,80,108.2,77.7,107.8,75.3z"/>
	</g>
	<g id="_x23_fffffeff">
		<path fill="#FFFFFE" d="M48.8,91.6c10.3-1,20.7-1.1,31-0.1c4.5,0.5,9,1.1,13.3,2.3c-1.4,1.2-3.1,2.3-5.1,2.1c-15.5,0-31,0-46.6,0
			c-2.1,0.2-3.8-0.9-5.4-2.2C40.3,92.7,44.5,92.1,48.8,91.6z"/>
	</g>
</g>
</svg>
