<?xml version="1.0" encoding="utf-8"?>
<!-- Generator: Adobe Illustrator 21.0.0, SVG Export Plug-In . SVG Version: 6.00 Build 0)  -->
<svg version="1.0" id="Layer_1" xmlns="http://www.w3.org/2000/svg" xmlns:xlink="http://www.w3.org/1999/xlink" x="0px" y="0px"
	 width="128px" height="113px" viewBox="0 0 128 113" enable-background="new 0 0 128 113" xml:space="preserve">
<g>
	<path fill="#FFFFFF" d="M28.9,5.5c1.9-1,4.5,0.9,4,3c-0.2,2.1-3,3.2-4.6,1.8C26.7,9,27,6.2,28.9,5.5z"/>
	<g>
		<path fill="#FFFFFF" d="M43,22c0.4-0.1,0.8-0.2,1.2-0.2c16.7,0,33.5,0,50.2,0c0.7-0.1,1.2,0.3,1.1,1c0,10.4,0,20.8,0,31.3
			c-3.8-2.9-8.6-4.4-13.4-4.2c-4.9,0.1-9.6,2-13.3,5.2c-4.3,3.7-7,9.2-7.3,14.9c-0.3,6.2,2.2,12.6,6.9,16.7c-9,0-18.1,0-27.1,0
			c0.8-1,1.4-2.2,1.3-3.6c0-20,0-40,0-60C42.8,22.8,42.7,22.3,43,22z M61,35.9c-1.2,1.6-3.1,2.9-5.2,2.4c-0.8,0-1.6-0.9-2.3-0.3
			c0,0.7,0.8,0.8,1.3,1.1c2.4,0.8,5.3-0.2,6.7-2.4C61.8,36.3,61.5,35.4,61,35.9z M77.8,35.8c-0.3,0.6,0.3,1.1,0.6,1.6
			c1.5,1.8,4.1,2.4,6.3,1.6c0.5-0.2,1.1-0.4,1.2-1c-0.5-0.5-1.1,0-1.6,0.1c-1.8,0.7-4,0.1-5.1-1.4C78.7,36.3,78.5,35.7,77.8,35.8z
			 M59.9,39c-0.8,0.3-1.1,1.6-0.3,2.1c0.7,0.7,2.1,0.1,2-0.9C61.8,39.3,60.7,38.6,59.9,39z M78.5,39c-0.8,0.3-1.1,1.6-0.3,2.1
			c0.7,0.7,2.1,0.1,2-0.9C80.3,39.3,79.3,38.6,78.5,39z"/>
	</g>
	<path fill="#FFFFFF" d="M119.7,43.5c1.8-0.7,3.8,1.1,3.4,3c-0.3,1.9-2.8,2.8-4.2,1.6C117.3,46.9,117.8,44,119.7,43.5z"/>
	<path fill="#FFFFFF" d="M5.7,47.8c0.9-0.5,2.1,0.4,2,1.4c-0.1,1.1-1.5,1.7-2.3,0.9C4.5,49.6,4.8,48.1,5.7,47.8z"/>
	<g>
		<path fill="#FFFFFF" d="M80.5,55.1c4.3-0.7,8.8,0.5,12.2,3.2c3.6,2.8,5.9,7.1,6.2,11.6c0.3,4.3-1.3,8.6-4.2,11.8
			c-2.8,3.1-6.9,5-11.1,5.1c-4.2,0.2-8.4-1.4-11.4-4.2c-3.4-3.1-5.3-7.8-5.1-12.4c0.1-4.3,2.2-8.6,5.5-11.4
			C74.6,56.9,77.5,55.6,80.5,55.1z M78.2,62.5c-1.4,1.3-1.9,3.2-2,5c1.1,0,2.1,0,3.2,0c0.3-1.2,0.3-2.6,1.3-3.4
			c1.1-0.8,2.6-0.7,3.7-0.2c1.6,0.8,1.9,3.1,0.8,4.5c-1.1,1.5-2.8,2.5-3.7,4.1c-0.6,1-0.6,2.2-0.7,3.4c1.1,0,2.1,0,3.2,0
			c0.2-0.9,0.3-1.8,0.8-2.6c1.1-1.6,3-2.4,3.9-4.2c0.7-1.5,0.7-3.3,0.2-4.8c-0.7-1.8-2.4-3-4.2-3.3C82.5,60.5,79.9,60.9,78.2,62.5z
			 M82.3,77.3c-1.6,0.1-2.5,2.2-1.5,3.5s3.5,0.9,3.9-0.8C85.2,78.6,83.8,77.1,82.3,77.3z"/>
	</g>
	<path fill="#FFFFFF" d="M99.8,83.9c0.5-0.8,1.1-1.5,1.5-2.4c0.9,0.6,1.8,1.2,2.6,1.8c-0.5,0.8-1,1.5-1.6,2.3
		C101.5,85.1,100.6,84.5,99.8,83.9z"/>
	<g>
		<g>
			<path fill="#35979C" d="M28.6,4.5c2.1-0.9,4.8,0.4,5.2,2.7c0.5,2-1,4.3-3.1,4.6c-1.9,0.3-3.8-0.9-4.3-2.7
				C25.9,7.3,26.9,5.2,28.6,4.5z M28.9,5.5c-1.9,0.8-2.3,3.6-0.6,4.8c1.6,1.4,4.4,0.3,4.6-1.8C33.4,6.3,30.9,4.5,28.9,5.5z"/>
		</g>
		<g>
			<path fill="#35979C" d="M42.7,21.1c1-0.3,2-0.2,3-0.2c16.1,0,32.2,0,48.4,0c0.6,0,1.3,0,1.9,0.5s0.5,1.4,0.6,2.1
				c0,6.8,0,13.6,0,20.4c1.4-2,2.3-4.7,4.7-5.7c1.2-0.4,2.5-0.7,3.8-0.5c0,0.2,0.1,0.4,0.2,0.6c-1.3,0.6-2.8,0.3-4,1
				c-1.5,0.9-2.1,2.5-3,3.9c-0.6,1.1-1.7,2.2-1.6,3.6c0,2.7,0,5.4,0,8.1c4,3.3,6.6,8.1,7.3,13.2c0.6,4.3-0.1,8.7-2.1,12.6
				c0.9,0.6,1.8,1.2,2.7,1.9c0.3-0.4,0.5-0.8,0.8-1.2c5,3.3,9.9,6.7,14.8,10c1.8,1.1,2.3,3.7,1.1,5.3c-1.1,1.7-3.6,2.1-5.2,1
				c-5-3.3-10-6.7-14.9-10c0.3-0.4,0.5-0.8,0.8-1.2c-0.9-0.6-1.8-1.2-2.7-1.8c-3,3.5-7.1,6.1-11.6,7.1c-5.8,1.3-12.1,0.1-16.9-3.4
				c-0.5-0.3-1-0.8-1.6-0.8c-9.5,0-19.1,0.1-28.6,0c-1.5-0.1-3.1,0.2-4.4-0.8C35,86,34.3,84.5,34.4,83c0-4.6,0-9.2,0-13.8
				c-0.1-0.5,0.2-1.2,0.9-1.2c2.2-0.1,4.5,0,6.7,0c0-7.2,0-14.3,0-21.4c0-1.2-0.9-2.1-1.4-3.1c-0.9-1.4-1.6-3-2.9-4.1
				c-1.2-1-2.8-0.8-4.2-1.2c-0.1-0.2-0.2-0.7-0.3-0.9c2,0.1,4.3,0.2,5.7,1.8c1.2,1.5,2.1,3.2,3.1,4.8c0-7,0-14,0-21
				C41.8,22.4,41.9,21.5,42.7,21.1z M43,22c-0.3,0.3-0.3,0.8-0.3,1.2c0,20,0,40,0,60c0.1,1.3-0.5,2.5-1.3,3.6c9,0,18.1,0,27.1,0
				c-4.6-4.2-7.2-10.5-6.9-16.7c0.3-5.7,3-11.2,7.3-14.9c3.6-3.2,8.4-5.1,13.3-5.2c4.8-0.2,9.6,1.3,13.4,4.2
				c-0.1-10.4,0-20.8,0-31.3c0.1-0.7-0.5-1.1-1.1-1c-16.8,0-33.5,0-50.2,0C43.8,21.8,43.4,21.9,43,22z M79.8,51.1
				c-5.1,0.8-9.9,3.5-13,7.6c-2.4,3.1-4,7-4.2,11c-0.3,4.6,1,9.3,3.6,13.1C69.1,87,73.7,90,78.7,91c4.8,1,10,0.2,14.3-2.3
				c4.2-2.4,7.4-6.3,9-10.8c1.8-4.9,1.5-10.5-0.8-15.2c-1.9-4.3-5.5-7.8-9.7-9.8C87.9,51.1,83.8,50.5,79.8,51.1z M35.2,69.1
				c0,4.5,0,8.9,0,13.4c0,1.2,0.1,2.5,1,3.3c0.7,0.8,2,0.5,2.5,1.5c0-0.1,0-0.4,0-0.6c1.8,0,3.1-1.6,3.1-3.3c0.1-4.8,0-9.6,0-14.4
				C39.6,69.1,37.4,69.1,35.2,69.1z M99.8,83.9c0.9,0.6,1.8,1.2,2.6,1.8c0.5-0.8,1-1.5,1.6-2.3c-0.9-0.6-1.8-1.2-2.6-1.8
				C100.8,82.4,100.3,83.1,99.8,83.9z M105.6,82.7c-1,1.6-2,3.1-3.1,4.7c0.5,0.3,1,0.7,1.5,1c1-1.6,2.1-3.1,3.1-4.7
				C106.6,83.4,106.1,83.1,105.6,82.7z M104.8,89c3.8,2.5,7.6,5.1,11.3,7.7c0.7,0.5,1.6,0.9,2.5,0.7c1.6-0.2,2.7-2,2.3-3.5
				c-0.2-0.9-1-1.5-1.8-2c-3.7-2.5-7.4-5-11.2-7.5C106.8,85.9,105.8,87.4,104.8,89z"/>
		</g>
		<path fill="#35979C" d="M61,35.9c0.6-0.5,0.8,0.4,0.5,0.8c-1.3,2.2-4.2,3.2-6.7,2.4c-0.5-0.2-1.3-0.4-1.3-1.1
			c0.7-0.6,1.5,0.3,2.3,0.3C57.9,38.8,59.8,37.5,61,35.9z"/>
		<path fill="#35979C" d="M77.8,35.8c0.7-0.2,0.9,0.5,1.3,0.9c1.2,1.5,3.4,2.1,5.1,1.4c0.5-0.1,1.1-0.6,1.6-0.1
			c-0.1,0.6-0.7,0.8-1.2,1c-2.2,0.8-4.8,0.2-6.3-1.6C78,36.9,77.5,36.4,77.8,35.8z"/>
		<path fill="#35979C" d="M59.9,39c0.8-0.4,1.8,0.3,1.7,1.2c0,1-1.3,1.6-2,0.9C58.9,40.6,59.1,39.3,59.9,39z"/>
		<path fill="#35979C" d="M78.5,39c0.8-0.4,1.8,0.3,1.7,1.2c0,1-1.3,1.6-2,0.9C77.4,40.6,77.6,39.3,78.5,39z"/>
		<g>
			<path fill="#35979C" d="M119.7,42.5c2-0.6,4.2,1,4.4,3c0.3,1.9-1.3,3.9-3.2,4c-1.8,0.2-3.6-1.2-3.8-3
				C116.7,44.7,117.9,42.9,119.7,42.5z M119.7,43.5c-1.9,0.5-2.4,3.4-0.8,4.5c1.4,1.3,4,0.3,4.2-1.6
				C123.5,44.6,121.5,42.8,119.7,43.5z"/>
		</g>
		<g>
			<path fill="#35979C" d="M80.2,54.2c4-0.7,8.3,0.2,11.7,2.4c4,2.4,6.8,6.6,7.7,11.2c0.9,4.6-0.3,9.5-3.1,13.3
				c-2.8,3.7-7.1,6.2-11.7,6.7c-4.3,0.5-8.8-0.8-12.2-3.4c-3.8-2.9-6.2-7.4-6.6-12.1c-0.3-4.1,0.9-8.3,3.4-11.6
				C72,57.3,75.9,54.9,80.2,54.2z M80.5,55.1c-3,0.4-5.8,1.8-8.1,3.8c-3.3,2.9-5.3,7.1-5.5,11.4c-0.2,4.6,1.7,9.3,5.1,12.4
				c3.1,2.8,7.3,4.4,11.4,4.2c4.2-0.2,8.3-2,11.1-5.1c2.9-3.1,4.5-7.5,4.2-11.8c-0.3-4.5-2.5-8.9-6.2-11.6
				C89.2,55.7,84.7,54.5,80.5,55.1z"/>
		</g>
		<path fill="#35979C" d="M24,88.4c0.3-0.3,0.5-0.3,0.8,0.1c0.2,0.8,0.1,1.7,0.1,2.6c0.8,0,1.6,0,2.4,0c0.5-0.1,0.7,1,0,0.9
			c-0.8,0.1-1.6,0-2.4,0c0,0.9,0.1,1.9-0.1,2.8c-0.2,0-0.6,0-0.7,0.1C23.9,94,24,93,24,92.1c-0.9,0-1.8,0-2.7,0
			c-0.2-0.3-0.1-0.6-0.1-0.9c0.9,0,1.9,0,2.8,0C23.9,90.2,23.8,89.3,24,88.4z"/>
	</g>
	<g>
		<path fill="#AEE5E5" d="M110.2,21.3c0.2-0.6-0.1-2,0.8-1.8c0.2,0.6,0.3,1.2,0.3,1.8c0.5,0.1,1,0.1,1.5,0.2
			c0.1,0.1,0.3,0.4,0.5,0.5c-0.6,0.2-1.3,0.3-2,0.4c-0.1,0.7,0,1.7-0.9,2c-0.1-0.7-0.2-1.3-0.3-1.9c-0.8-0.1-1.6-0.1-2.1-0.8
			C108.8,21.5,109.5,21.4,110.2,21.3z"/>
		<g>
			<path fill="#AEE5E5" d="M5.3,46.9C7,46.1,9,47.7,8.6,49.5c-0.2,1.7-2.4,2.6-3.8,1.5C3.4,50,3.7,47.5,5.3,46.9z M5.7,47.8
				c-0.9,0.4-1.1,1.8-0.3,2.4c0.8,0.7,2.3,0.2,2.3-0.9C7.8,48.2,6.6,47.3,5.7,47.8z"/>
		</g>
		<path fill="#AEE5E5" d="M78.2,62.5c1.7-1.6,4.3-2,6.6-1.6c1.8,0.3,3.5,1.5,4.2,3.3c0.6,1.5,0.5,3.3-0.2,4.8
			c-0.9,1.8-2.9,2.6-3.9,4.2c-0.5,0.8-0.6,1.7-0.8,2.6c-1.1,0-2.1,0-3.2,0c0.1-1.1,0.1-2.4,0.7-3.4c0.9-1.6,2.6-2.6,3.7-4.1
			c1-1.3,0.8-3.7-0.8-4.5c-1.2-0.5-2.7-0.5-3.7,0.2c-1,0.8-1.1,2.2-1.3,3.4c-1.1,0-2.1,0-3.2,0C76.3,65.7,76.7,63.7,78.2,62.5z"/>
		<path fill="#AEE5E5" d="M35.2,69.1c2.2,0,4.4,0,6.7,0c0,4.8,0,9.6,0,14.4c0,1.7-1.3,3.4-3.1,3.3c0,0.1,0,0.4,0,0.6
			c-0.5-1-1.8-0.7-2.5-1.5c-0.9-0.8-1.1-2.1-1-3.3C35.2,78.1,35.2,73.6,35.2,69.1z"/>
		<path fill="#AEE5E5" d="M82.3,77.3c1.5-0.3,2.9,1.2,2.4,2.7c-0.4,1.7-2.9,2.1-3.9,0.8C79.8,79.5,80.7,77.4,82.3,77.3z"/>
		<path fill="#AEE5E5" d="M105.6,82.7c0.5,0.3,1,0.7,1.5,1.1c-1,1.6-2.1,3.1-3.1,4.7c-0.5-0.3-1-0.7-1.5-1
			C103.5,85.9,104.5,84.3,105.6,82.7z"/>
		<path fill="#AEE5E5" d="M104.8,89c1-1.6,2.1-3.1,3.1-4.7c3.7,2.5,7.4,5,11.2,7.5c0.8,0.5,1.6,1.1,1.8,2c0.5,1.5-0.7,3.3-2.3,3.5
			c-0.9,0.2-1.8-0.3-2.5-0.7C112.3,94.1,108.5,91.5,104.8,89z"/>
		<path fill="#AEE5E5" d="M36.4,102.1c0.4-0.1,0.8-0.1,1.2-0.1c21.7,0,43.3,0,65,0c0.4,0.1,0.9,0,1.2,0.3c0.5,0.5,0.2,1.5-0.6,1.5
			c-1.3,0.2-2.7,0-4.1,0.1c-20.5,0-41,0-61.5,0c-0.5,0-1,0-1.4-0.2C35.6,103.3,35.8,102.3,36.4,102.1z"/>
		<path fill="#AEE5E5" d="M55.6,106.9c0.4-0.1,0.8-0.1,1.1-0.1c8.9,0,17.8,0,26.7,0c0.6,0,1.5,0.1,1.5,0.9c0.1,0.8-0.9,1-1.5,1
			c-8.2,0-16.3,0-24.5,0c-1.1,0-2.3,0.1-3.4-0.1C54.7,108.4,54.8,107,55.6,106.9z"/>
	</g>
	<g>
		<g>
			<path fill="#F5F8FF" d="M79.8,51.1c4-0.6,8.1,0,11.7,1.7c4.2,2,7.8,5.5,9.7,9.8c2.2,4.7,2.5,10.3,0.8,15.2
				c-1.6,4.5-4.8,8.4-9,10.8c-4.3,2.5-9.4,3.3-14.3,2.3c-5-1-9.6-4-12.5-8.2c-2.7-3.8-4-8.5-3.6-13.1c0.3-4,1.8-7.8,4.2-11
				C70,54.6,74.7,51.8,79.8,51.1z M80.2,54.2c-4.2,0.7-8.2,3-10.8,6.4c-2.5,3.3-3.8,7.5-3.4,11.6c0.3,4.7,2.8,9.3,6.6,12.1
				c3.4,2.6,7.9,3.9,12.2,3.4c4.6-0.5,8.9-3,11.7-6.7c2.8-3.7,4-8.7,3.1-13.3c-0.8-4.6-3.7-8.8-7.7-11.2
				C88.4,54.4,84.2,53.5,80.2,54.2z"/>
		</g>
	</g>
</g>
</svg>
