<?xml version="1.0" encoding="utf-8"?>
<!-- Generator: Adobe Illustrator 21.0.0, SVG Export Plug-In . SVG Version: 6.00 Build 0)  -->
<svg version="1.0" id="Layer_1" xmlns="http://www.w3.org/2000/svg" xmlns:xlink="http://www.w3.org/1999/xlink" x="0px" y="0px"
	 viewBox="0 0 422 378" enable-background="new 0 0 422 378" xml:space="preserve">
<path fill="#FFFFFF" d="M97.3,23.4c6.2-3.2,14.2,2.8,12.8,9.7c-0.7,6.7-9.7,10.2-14.7,5.7C90.1,34.8,91.3,25.8,97.3,23.4z"/>
<g>
	<path fill="#FFFFFF" d="M142.2,76.2c1.2-0.4,2.5-0.6,3.8-0.5c53.3,0.1,106.7,0,160,0c2.1-0.4,3.9,1,3.6,3.2
		c0.1,33.2-0.1,66.4,0.1,99.6c-12.1-9.2-27.4-14.1-42.7-13.5c-15.5,0.4-30.7,6.4-42.3,16.6c-13.7,11.9-22.3,29.4-23.1,47.5
		c-1.1,19.8,7.1,40,21.9,53.3c-28.8-0.1-57.6-0.1-86.4,0c2.6-3.3,4.5-7.1,4.3-11.4c0-63.7,0-127.3,0-191
		C141.5,78.7,141.2,77.2,142.2,76.2z M199.4,120.3c-3.8,5-9.8,9.2-16.5,7.7c-2.5-0.1-5.2-2.9-7.4-1c0.1,2.2,2.6,2.7,4.2,3.4
		c7.7,2.7,16.9-0.6,21.2-7.6C202.1,121.6,201.2,118.8,199.4,120.3z M253,120.1c-1,1.9,0.8,3.6,1.9,5c4.8,5.6,13.1,7.7,20,5.1
		c1.5-0.6,3.6-1.3,3.7-3.2c-1.5-1.6-3.4,0-5.1,0.3c-5.6,2.2-12.6,0.4-16.3-4.4C256,121.8,255.1,119.6,253,120.1z M196.1,130.2
		c-2.7,1-3.4,5-1,6.7c2.3,2.1,6.6,0.2,6.5-2.9C201.9,131.2,198.6,129,196.1,130.2z M255.2,130.2c-2.7,0.9-3.4,5-1.1,6.7
		c2.3,2.1,6.6,0.3,6.5-2.9C260.9,131.3,257.7,129,255.2,130.2z"/>
</g>
<path fill="#FFFFFF" d="M386.5,144.6c5.7-2.2,12.2,3.4,10.9,9.4c-0.8,6-8.9,9-13.4,5C378.8,155.3,380.4,146.3,386.5,144.6z"/>
<path fill="#FFFFFF" d="M23.3,158.2c3-1.5,6.8,1.3,6.3,4.6c-0.2,3.5-4.8,5.4-7.4,3C19.6,163.9,20.3,159.4,23.3,158.2z"/>
<g>
	<path fill="#FFFFFF" d="M261.5,181.7c13.6-2.1,27.9,1.6,38.8,10.1c11.5,8.8,18.8,22.7,19.6,37.1c0.9,13.7-4.1,27.5-13.4,37.5
		c-9,9.9-22.1,15.9-35.5,16.4c-13.3,0.6-26.7-4.4-36.4-13.4c-10.9-9.9-17-24.7-16.3-39.4c0.4-13.8,6.9-27.3,17.4-36.3
		C242.9,187.3,252,183.1,261.5,181.7z M254.2,205.2c-4.6,4-6,10.2-6.3,16c3.4,0.1,6.8,0.1,10.2,0c0.8-3.7,1.1-8.2,4.3-10.7
		c3.4-2.4,8.2-2.3,11.9-0.7c5.1,2.5,6,10,2.7,14.3c-3.5,4.7-8.9,7.9-11.8,13.1c-1.9,3.2-2,7.1-2.3,10.7c3.4,0,6.7,0,10.1,0
		c0.6-2.8,0.9-5.8,2.4-8.3c3.4-5.2,9.7-7.8,12.5-13.5c2.1-4.8,2.3-10.5,0.5-15.4c-2.1-5.6-7.5-9.4-13.3-10.4
		C267.9,198.9,259.7,199.9,254.2,205.2z M267.4,252.4c-5.2,0.2-8.1,7.1-4.7,11c3.2,4.3,11.1,3,12.3-2.4
		C276.5,256.3,272,251.6,267.4,252.4z"/>
</g>
<path fill="#FFFFFF" d="M323,273.4c1.7-2.4,3.4-4.9,4.9-7.5c2.8,1.9,5.6,3.8,8.4,5.7c-1.7,2.5-3.3,4.9-5,7.4
	C328.6,277.1,325.8,275.2,323,273.4z"/>
<g>
	<g>
		<path fill="#35979C" d="M96.4,20.5c6.6-3,15.2,1.3,16.5,8.5c1.7,6.5-3.2,13.8-9.9,14.7c-5.9,1.1-12.1-2.9-13.6-8.7
			C87.7,29.2,90.9,22.7,96.4,20.5z M97.3,23.4c-6,2.4-7.2,11.5-2,15.3c5,4.5,14,1.1,14.7-5.7C111.5,26.2,103.5,20.2,97.3,23.4z"/>
	</g>
	<g>
		<path fill="#35979C" d="M141.3,73.3c3.1-1,6.5-0.5,9.7-0.6c51.4,0,102.7,0,154.1,0c2,0.1,4.3,0,5.9,1.5c1.9,1.7,1.7,4.5,1.8,6.8
			c-0.1,21.7,0,43.3-0.1,65c4.5-6.4,7.3-15.1,15.1-18.3c3.8-1.2,8-2.1,12-1.5c0.1,0.5,0.4,1.4,0.5,1.9c-4.1,1.8-9,0.8-12.9,3.2
			c-4.7,2.8-6.7,8.1-9.7,12.4c-2,3.6-5.4,6.9-5,11.4c0.1,8.6-0.1,17.3,0.1,25.9c12.6,10.6,21,25.8,23.3,42.1
			c2,13.6-0.4,27.8-6.6,40.1c2.9,2,5.8,3.9,8.6,5.9c0.9-1.3,1.7-2.5,2.6-3.7c15.8,10.6,31.5,21.2,47.3,31.9c5.7,3.4,7.4,11.7,3.5,17
			c-3.5,5.4-11.4,6.8-16.6,3.1c-15.9-10.6-31.7-21.4-47.6-32c0.8-1.3,1.7-2.5,2.5-3.8c-2.8-1.9-5.7-3.8-8.5-5.7
			c-9.5,11.3-22.6,19.5-37,22.7c-18.4,4.3-38.6,0.4-53.9-10.7c-1.6-1.1-3.2-2.5-5.2-2.4c-30.3-0.1-60.7,0.2-91,0.1
			c-4.7-0.2-10,0.5-14-2.5c-3.9-2.6-6-7.3-5.8-12c0-14.7,0-29.4,0-44.1c-0.2-1.7,0.7-3.9,2.8-3.7c7.1-0.3,14.3-0.1,21.4,0
			c-0.1-22.8,0-45.5,0-68.3c0.1-3.8-2.8-6.7-4.5-9.8c-3-4.4-5.1-9.5-9.2-13c-3.8-3.1-9-2.6-13.5-3.7c-0.2-0.7-0.6-2.1-0.8-2.8
			c6.3,0.3,13.6,0.7,18.1,5.8c3.9,4.7,6.6,10.2,9.9,15.3c-0.1-22.3,0-44.6-0.1-66.9C138.2,77.5,138.7,74.4,141.3,73.3z M142.2,76.2
			c-1,1-0.8,2.5-0.9,3.8c0,63.7,0,127.3,0,191c0.2,4.3-1.7,8.1-4.3,11.4c28.8-0.1,57.6-0.1,86.4,0c-14.8-13.3-23-33.5-21.9-53.3
			c0.8-18.1,9.4-35.6,23.1-47.5c11.6-10.2,26.9-16.2,42.3-16.6c15.2-0.5,30.5,4.3,42.7,13.5c-0.2-33.2,0.1-66.4-0.1-99.6
			c0.4-2.2-1.5-3.6-3.6-3.2c-53.4,0-106.7,0-160,0C144.7,75.6,143.4,75.8,142.2,76.2z M259.4,168.7c-16.2,2.4-31.4,11.2-41.3,24.3
			c-7.8,10-12.6,22.4-13.4,35c-1.1,14.7,3.1,29.7,11.6,41.7c9.3,13.3,23.8,22.9,39.8,26.1c15.3,3.2,31.8,0.5,45.4-7.4
			c13.3-7.6,23.6-20.1,28.6-34.5c5.6-15.7,4.7-33.5-2.4-48.5c-6.2-13.6-17.4-24.8-30.9-31.1C285.2,168.7,272,166.8,259.4,168.7z
			 M117.2,226.2c0,14.3,0,28.5,0,42.7c-0.1,3.8,0.3,8,3.3,10.6c2.1,2.5,6.4,1.7,8,4.9c0-0.4-0.1-1.3-0.1-1.8
			c5.7,0.1,9.9-5.2,10-10.6c0.2-15.3,0-30.5,0.1-45.8C131.3,226.2,124.3,226.2,117.2,226.2z M323,273.4c2.8,1.9,5.6,3.7,8.4,5.6
			c1.7-2.5,3.3-4.9,5-7.4c-2.8-1.9-5.6-3.8-8.4-5.7C326.4,268.4,324.7,270.9,323,273.4z M341.5,269.5c-3.2,5.1-6.5,10-10,14.9
			c1.6,1.1,3.3,2.2,4.9,3.3c3.3-5,6.7-9.9,10-14.9C344.7,271.8,343.1,270.7,341.5,269.5z M338.9,289.5c12.1,8.1,24.1,16.2,36.1,24.4
			c2.3,1.6,5.1,2.9,8,2.3c5-0.7,8.6-6.3,7.2-11.1c-0.7-3-3.3-4.9-5.6-6.5c-11.9-7.9-23.7-16-35.6-23.9
			C345.5,279.6,342.2,284.5,338.9,289.5z"/>
	</g>
	<path fill="#35979C" d="M199.4,120.3c1.8-1.5,2.7,1.3,1.6,2.4c-4.2,7-13.4,10.3-21.2,7.6c-1.7-0.7-4.1-1.2-4.2-3.4
		c2.2-1.9,4.9,0.9,7.4,1C189.6,129.6,195.6,125.4,199.4,120.3z"/>
	<path fill="#35979C" d="M253,120.1c2.1-0.5,2.9,1.7,4.2,2.8c3.8,4.7,10.7,6.6,16.3,4.4c1.7-0.4,3.6-1.9,5.1-0.3
		c-0.2,1.9-2.2,2.6-3.7,3.2c-6.9,2.6-15.2,0.5-20-5.1C253.8,123.7,252,122,253,120.1z"/>
	<path fill="#35979C" d="M196.1,130.2c2.5-1.2,5.7,1,5.5,3.8c0.1,3.2-4.2,5.1-6.5,2.9C192.8,135.2,193.4,131.2,196.1,130.2z"/>
	<path fill="#35979C" d="M255.2,130.2c2.5-1.2,5.7,1.1,5.4,3.8c0.1,3.2-4.2,5-6.5,2.9C251.8,135.2,252.5,131.1,255.2,130.2z"/>
	<g>
		<path fill="#35979C" d="M386.4,141.4c6.3-1.8,13.4,3.1,14,9.6c1,6.2-4.1,12.4-10.3,12.7c-5.8,0.6-11.6-3.9-12.2-9.7
			C376.9,148.5,380.9,142.7,386.4,141.4z M386.5,144.6c-6.1,1.7-7.7,10.7-2.5,14.4c4.6,4,12.6,1,13.4-5
			C398.7,148,392.2,142.4,386.5,144.6z"/>
	</g>
	<g>
		<path fill="#35979C" d="M260.5,178.8c12.8-2.1,26.3,0.6,37.2,7.5c12.6,7.8,21.7,21.1,24.4,35.7c2.8,14.6-0.8,30.4-9.8,42.3
			c-8.8,11.8-22.6,19.7-37.2,21.3c-13.7,1.6-27.9-2.4-38.8-10.8c-12.1-9.1-19.8-23.6-20.9-38.6c-1.1-13.1,2.9-26.5,10.9-36.9
			C234.5,188.4,247,180.9,260.5,178.8z M261.5,181.7c-9.5,1.4-18.6,5.6-25.9,12c-10.4,9.1-16.9,22.5-17.4,36.3
			c-0.6,14.7,5.5,29.5,16.3,39.4c9.8,9,23.1,14,36.4,13.4c13.4-0.5,26.5-6.5,35.5-16.4c9.3-10,14.3-23.9,13.4-37.5
			c-0.8-14.4-8.1-28.3-19.6-37.1C289.4,183.3,275.1,179.5,261.5,181.7z"/>
	</g>
	<path fill="#35979C" d="M81.6,287.6c0.9-0.9,1.7-0.8,2.5,0.3c0.5,2.7,0.2,5.5,0.2,8.3c2.5,0,5.1-0.1,7.6,0.1
		c1.7-0.4,2.2,3.2,0.1,2.8c-2.6,0.3-5.1,0.1-7.7,0.1c0,2.9,0.2,5.9-0.3,8.8c-0.6,0-1.8,0.1-2.3,0.2c-0.6-2.9-0.4-6-0.4-9
		c-2.8,0-5.7,0.1-8.5-0.1c-0.6-0.9-0.3-1.9-0.4-2.9c2.9,0,5.9,0,8.8,0C81.4,293.3,81,290.4,81.6,287.6z"/>
</g>
<g>
	<path fill="#AEE5E5" d="M356.1,73.8c0.6-1.8-0.4-6.3,2.7-5.6c0.7,1.8,0.8,3.8,1,5.8c1.6,0.2,3.2,0.3,4.9,0.5
		c0.4,0.4,1.1,1.3,1.5,1.7c-2,0.7-4.2,1.1-6.3,1.3c-0.4,2.3,0,5.5-2.9,6.3c-0.4-2.1-0.6-4.1-0.9-6.2c-2.4-0.2-5-0.4-6.6-2.5
		C351.7,74.6,353.9,74.2,356.1,73.8z"/>
	<g>
		<path fill="#AEE5E5" d="M22.2,155.4c5.2-2.4,11.5,2.7,10.3,8.2c-0.6,5.5-7.8,8.3-12,4.8C15.9,165.2,16.9,157.2,22.2,155.4z
			 M23.3,158.2c-3,1.2-3.6,5.6-1.1,7.6c2.6,2.3,7.2,0.5,7.4-3C30,159.5,26.3,156.7,23.3,158.2z"/>
	</g>
	<path fill="#AEE5E5" d="M254.2,205.2c5.5-5.2,13.7-6.3,21-5c5.8,1,11.2,4.9,13.3,10.4c1.8,4.9,1.6,10.6-0.5,15.4
		c-2.8,5.7-9.1,8.3-12.5,13.5c-1.5,2.5-1.8,5.5-2.4,8.3c-3.4,0-6.7,0-10.1,0c0.3-3.6,0.3-7.5,2.3-10.7c2.9-5.2,8.3-8.4,11.8-13.1
		c3.3-4.3,2.4-11.8-2.7-14.3c-3.7-1.6-8.5-1.7-11.9,0.7c-3.3,2.5-3.6,7-4.3,10.7c-3.4,0.1-6.8,0.1-10.2,0
		C248.1,215.4,249.6,209.1,254.2,205.2z"/>
	<path fill="#AEE5E5" d="M117.2,226.2c7.1,0,14.1,0,21.2,0c-0.1,15.3,0.1,30.5-0.1,45.8c0,5.4-4.3,10.8-10,10.6
		c0,0.4,0.1,1.3,0.1,1.8c-1.5-3.2-5.8-2.3-8-4.9c-3-2.6-3.5-6.8-3.3-10.6C117.2,254.7,117.2,240.4,117.2,226.2z"/>
	<path fill="#AEE5E5" d="M267.4,252.4c4.7-0.8,9.1,3.9,7.6,8.6c-1.2,5.4-9.1,6.7-12.3,2.4C259.3,259.4,262.1,252.5,267.4,252.4z"/>
	<path fill="#AEE5E5" d="M341.5,269.5c1.6,1.1,3.3,2.2,4.9,3.4c-3.3,5-6.7,9.9-10,14.9c-1.6-1.1-3.3-2.2-4.9-3.3
		C334.9,279.6,338.2,274.6,341.5,269.5z"/>
	<path fill="#AEE5E5" d="M338.9,289.5c3.3-5,6.7-10,10-14.9c11.9,7.9,23.7,16,35.6,23.9c2.4,1.6,5,3.5,5.6,6.5
		c1.5,4.9-2.1,10.4-7.2,11.1c-2.9,0.6-5.6-0.8-8-2.3C363,305.7,350.9,297.6,338.9,289.5z"/>
	<path fill="#AEE5E5" d="M121.2,331.4c1.2-0.3,2.5-0.4,3.8-0.4c69,0.1,138,0,207,0c1.3,0.2,2.9-0.1,3.8,1.1c1.7,1.5,0.5,4.9-1.9,4.8
		c-4.3,0.5-8.7,0.1-13,0.2c-65.3,0-130.7,0-196,0c-1.5-0.1-3.2,0-4.5-0.7C118.7,335.2,119.1,332,121.2,331.4z"/>
	<path fill="#AEE5E5" d="M182.4,346.6c1.2-0.2,2.4-0.3,3.6-0.3c28.4,0.1,56.7,0,85.1,0c2,0,4.8,0.3,4.7,2.9c0.3,2.7-2.8,3.3-4.9,3.2
		c-26,0-52,0-78,0c-3.6,0-7.3,0.3-10.9-0.3C179.4,351.4,179.6,346.9,182.4,346.6z"/>
</g>
<g>
	<g>
		<path fill="#F5F8FF" d="M259.4,168.7c12.6-1.9,25.8,0,37.3,5.5c13.5,6.4,24.7,17.6,30.9,31.1c7,15.1,7.9,32.9,2.4,48.5
			c-5,14.4-15.3,26.9-28.6,34.5c-13.6,7.9-30.1,10.6-45.4,7.4c-15.9-3.3-30.5-12.8-39.8-26.1c-8.5-12-12.6-27-11.6-41.7
			c0.8-12.7,5.6-25,13.4-35C228.1,180,243.2,171.1,259.4,168.7z M260.5,178.8c-13.5,2.1-26.1,9.6-34.3,20.5
			c-8,10.4-12,23.8-10.9,36.9c1.1,15.1,8.9,29.5,20.9,38.6c10.9,8.4,25.1,12.4,38.8,10.8c14.6-1.6,28.4-9.4,37.2-21.3
			c9-11.9,12.7-27.6,9.8-42.3c-2.7-14.6-11.7-27.9-24.4-35.7C286.8,179.4,273.3,176.6,260.5,178.8z"/>
	</g>
</g>
</svg>
