<?xml version="1.0" encoding="utf-8"?>
<!-- Generator: Adobe Illustrator 21.0.0, SVG Export Plug-In . SVG Version: 6.00 Build 0)  -->
<svg version="1.0" id="Layer_1" xmlns="http://www.w3.org/2000/svg" xmlns:xlink="http://www.w3.org/1999/xlink" x="0px" y="0px"
	 width="128px" height="89.5px" viewBox="0 0 128 89.5" enable-background="new 0 0 128 89.5" xml:space="preserve">
<g>
	<g id="_x23_1e90feff">
		<path fill="#35979C" d="M63.3,5.4c0.8-0.5,1.9,0,1.9,1c0.1,4,0.2,8.1,0,12.1c0.1,1.2-2.2,1.1-2.1-0.1c-0.3-3.3,0-6.6-0.1-9.8
			C62.9,7.6,62.7,6.4,63.3,5.4z"/>
	</g>
	<g id="_x23_1f8ffeff">
		<path fill="#35979C" d="M36.6,15c-1.4-1,0.7-2.9,1.6-1.5c2.8,2.7,5.5,5.4,8.2,8.2c0.8,0.8-0.1,1.7-0.7,2.2
			C42.5,21.2,39.6,18,36.6,15z"/>
		<path fill="#35979C" d="M36.6,29.7c1.7-0.4,3.5-0.2,5.3-0.2c16.1,0,32.2,0,48.3,0c2.3-0.1,4.3,1.4,5.2,3.5
			c2.9,6.3,5.7,12.6,8.6,18.9c0.9,1.9,0.7,4,0.7,6.1c-0.1,6.9,0.1,13.8,0,20.7c0.1,3-2.7,5.6-5.7,5.5c-23.2,0-46.4,0-69.6,0
			c-3,0.1-5.8-2.4-5.8-5.4c-0.1-6.8,0-13.5,0-20.3c0-2.3-0.3-4.7,0.8-6.7c2.7-5.7,5.4-11.4,8.1-17.1C33.2,32.7,34.3,30.4,36.6,29.7
			 M37.4,32c-1.3,0.3-1.9,1.6-2.4,2.6c-2.7,5.9-5.6,11.7-8.3,17.6c8.4,0.1,16.8,0,25.2,0c1.8-0.3,1.5,1.9,1.8,3
			c0.7,5.2,6.1,9.1,11.3,8.4c4.6-0.4,8.6-4.4,9-9c0.2-0.9,0.1-2.5,1.4-2.4c8.7-0.1,17.4,0,26.1,0c-2.9-6.2-5.6-12.5-8.4-18.6
			c-0.6-1.3-2-1.9-3.4-1.8c-15.7,0-31.5,0-47.2,0C40.8,31.9,39.1,31.7,37.4,32 M25.9,54.6c0,7.9,0,15.8,0,23.6
			c0.1,1.8,1.5,3.7,3.5,3.5c21.9,0,43.8,0,65.8,0c1.6,0,3.3,0.1,5-0.1c1.4-0.4,2-1.9,2.3-3.2c-0.1-7.9,0-15.8-0.1-23.7
			c-8.6,0-17.2,0-25.8,0c-0.5,2.4-1.2,4.7-2.8,6.6c-3.4,4.5-10,6.2-15.1,3.7c-4.2-1.8-6.9-5.9-7.5-10.4
			C42.6,54.6,34.2,54.6,25.9,54.6z"/>
	</g>
	<g id="_x23_1f8ffdff">
		<path fill="#35979C" d="M85.3,16.9c1.4-1.4,2.6-2.9,4.4-3.8c0.2,0.4,0.6,1.2,0.8,1.6c-1.2,1.8-2.9,3.1-4.4,4.7
			c-1.6,1.5-3,3.3-4.7,4.6c-1,0.4-2-0.9-1.3-1.7C81.7,20.4,83.6,18.7,85.3,16.9z"/>
	</g>
	<g id="_x23_eff8ffff">
		<path fill="#EFF8FF" d="M37.4,32c1.6-0.3,3.3-0.1,5-0.2c15.7,0,31.5,0,47.2,0c1.3-0.1,2.8,0.5,3.4,1.8c2.9,6.2,5.6,12.4,8.4,18.6
			c-8.7,0-17.4,0-26.1,0c-1.4-0.2-1.2,1.5-1.4,2.4c-0.4,4.6-4.4,8.6-9,9c-5.2,0.8-10.5-3.2-11.3-8.4c-0.3-1.1,0-3.3-1.8-3
			c-8.4-0.1-16.8,0-25.2,0c2.8-5.9,5.6-11.7,8.3-17.6C35.5,33.6,36.1,32.3,37.4,32 M39.8,36.1c-1.1,1.8-1.7,3.8-2.6,5.6
			c-1,2.4-2.2,4.6-2.8,7.1c19.9,0,39.8,0.1,59.7-0.1c-1.1-4.4-3.5-8.3-4.8-12.7c-2.7-0.3-5.4-0.1-8-0.1c-13.2,0-26.3,0-39.5,0
			C41.2,35.9,40.5,36,39.8,36.1z"/>
		<path fill="#EFF8FF" d="M25.9,54.6c8.4,0,16.8,0,25.2,0c0.6,4.4,3.3,8.6,7.5,10.4c5.1,2.5,11.7,0.8,15.1-3.7
			c1.6-1.9,2.3-4.3,2.8-6.6c8.6,0,17.2,0,25.8,0c0,7.9-0.1,15.8,0.1,23.7c-25.5-0.2-51-0.1-76.4-0.1C25.9,70.3,25.8,62.5,25.9,54.6z
			"/>
	</g>
	<g id="_x23_b7dbffff">
		<path fill="#AEE5E5" d="M39.8,36.1c0.7-0.1,1.4-0.2,2.1-0.2c13.2,0.1,26.3,0,39.5,0c2.7,0,5.4-0.2,8,0.1c1.3,4.3,3.7,8.3,4.8,12.7
			c-19.9,0.2-39.8,0-59.7,0.1c0.6-2.5,1.8-4.7,2.8-7.1C38.1,39.9,38.7,37.8,39.8,36.1z"/>
	</g>
	<g id="_x23_b8dcffff">
		<path fill="#AEE5E5" d="M25.8,78.2c25.5,0,51-0.2,76.4,0.1c-0.2,1.3-0.9,2.8-2.3,3.2c-1.6,0.3-3.3,0.1-5,0.1
			c-21.9,0-43.8,0-65.8,0C27.3,81.9,25.9,80.1,25.8,78.2z"/>
	</g>
</g>
</svg>
