<?xml version="1.0" encoding="utf-8"?>
<!-- Generator: Adobe Illustrator 21.0.0, SVG Export Plug-In . SVG Version: 6.00 Build 0)  -->
<svg version="1.0" id="Layer_1" xmlns="http://www.w3.org/2000/svg" xmlns:xlink="http://www.w3.org/1999/xlink" x="0px" y="0px"
	 width="126px" height="113.5px" viewBox="0 0 126 113.5" enable-background="new 0 0 126 113.5" xml:space="preserve">
<g>
	<g id="_x23_e1eeffff">
		<path fill="#AEE5E5" d="M67.4,5.4c0.9-0.3,1.9-0.7,2.9-1.1c0.2,1.3,0.5,2.6,0.5,4c-0.6,1.3-2.3,0.9-3.5,1.2
			c-0.1-0.5-0.2-1.3-0.3-1.8C68.1,7.5,68.1,6.1,67.4,5.4z"/>
		<path fill="#AEE5E5" d="M3.9,32.2c3-1.6,4.6,3.9,1.3,4.1C2.8,36.8,1.8,33.2,3.9,32.2z"/>
		<path fill="#E1EEFF" d="M74,53.4c2.6,0.7,5.6,0.9,7.6,2.9C79,55.6,76.1,55.2,74,53.4z"/>
		<path fill="#AEE5E5" d="M120.2,83.6c2.8-1.7,4.3,3.3,1.6,4.2C119.5,88.4,117.7,84.7,120.2,83.6z"/>
	</g>
	<g id="_x23_62abffff">
		<path fill="#35979C" d="M66.9,7.7c-1.5-0.2-1.1-3,0.5-2.3C68.1,6.1,68.1,7.5,66.9,7.7z"/>
		<path fill="#35979C" d="M54.9,31.6c0.9-0.2,1.9,1.2,1.5,2C55.4,33.9,54.4,32.5,54.9,31.6z"/>
		<path fill="#35979C" d="M58.2,35.4c0.8-0.7,1.9-1.1,2.9-1.5c0,0.9-0.4,1.9-1.1,2.5C59.3,36.8,58.3,36.2,58.2,35.4z"/>
		<path fill="#35979C" d="M70.9,36.4c1-1,2.1-1.9,3.3-2.7C73.8,35.4,72.4,36.1,70.9,36.4z"/>
		<path fill="#35979C" d="M17.1,44.2c10.2-3.1,20.4-6.8,30.7-9.8c2.7,1.2,4.9,3.2,7.4,4.6c1-0.8,1.9-1.5,2.9-2.3
			c-0.6,1.1-1.5,2.1-2.4,2.9c2.8,1.6,5.3,3.5,8.1,5.2c5.3-3.4,10.4-7.1,15.8-10.3c2.1,0.2,4,1.1,6,1.6c8.4,2.7,16.7,5.4,25.1,8.1
			c1.2,0.4,2.2,1,3.3,1.6c-5.1,3.6-10.5,6.8-15.7,10.3c4.8,4.1,10.9,6.6,15.6,10.8c-5.5,1.9-11.1,3.6-16.6,5.4c0,8.8,0,17.5,0,26.3
			c-11.1,3.6-22,7.3-33.2,10.6c-11.2-3-22.2-7.2-33.5-10.5c-0.2-8.8,0-17.7-0.2-26.5c-5.5-1.8-11-3.4-16.4-5.3
			c4.6-4.3,10.5-6.7,15.3-10.7c-4.8-3.7-10.5-6.4-15.3-10.2C14.6,44.7,16.1,44.7,17.1,44.2 M45.6,36.8c-9.4,3.1-18.8,6.2-28.2,9.1
			c4.4,3.4,9.4,6.2,14,9.3c3.9-1.3,7.7-2.5,11.7-3.8c2.2-0.8,4.7-1.1,6.6-2.7c0.2,0.1,0.8,0.2,1,0.4c3.7-1.2,7.4-2.6,11.2-3.5
			c-2.6-1.7-5.2-3.5-7.8-5.1c-0.9,0.7-1.9,1.3-2.9,2c0.7-0.9,1.4-1.8,2.1-2.6C50.8,38.8,48.6,35.3,45.6,36.8 M78.8,37.1
			c-4.2,2.9-8.8,5.3-12.6,8.7c10.2,3,20.1,6.4,30.2,9.5c4.7-3.1,9.5-6.1,14.2-9.1c-8.9-2.9-17.9-5.8-26.8-8.7
			C82.2,37,80.4,35.7,78.8,37.1 M34.1,56.4c9.6,3.1,19.2,6.4,28.9,9.2c-0.1-6.2,0-12.4,0-18.5C53.4,50.2,43.7,53.1,34.1,56.4
			 M65,47.1c0,6.3,0,12.5,0,18.8c9.5-3.2,18.9-6.2,28.4-9.2c-2.2-1.5-5-1.9-7.4-2.7C78.9,51.6,71.9,49.4,65,47.1 M65.6,67.1
			c4.5,2.8,8.8,5.7,13.3,8.7c1.2,1,2.7,0.3,4-0.1c9.4-3.1,18.8-6,28.2-9.1c-4.9-3-9.7-6.3-14.6-9.4C86.2,60.3,75.9,63.8,65.6,67.1
			 M24,61.9c-2.2,1.6-4.9,2.6-6.6,4.9c10.2,3.1,20.2,6.6,30.4,9.7c4.6-3.3,9.8-6,14.2-9.5c-10.2-3.1-20.3-6.7-30.5-9.7
			C28.8,58.4,26.5,60.4,24,61.9 M47.8,77.8c-5.4-1.3-10.6-3.3-15.9-5c0,8.3,0,16.5,0,24.8c10.4,3.4,20.8,6.7,31.2,10.1
			c0-13.2,0-26.3,0-39.4C58,71.3,53.2,75,47.8,77.8 M64.6,68.1c0,13.2,0,26.4,0,39.6c10.3-3.4,20.8-6.7,31.1-10.1
			c0-8.2,0-16.5,0-24.7c-5.3,1.5-10.5,3.9-16,4.9C74.6,74.9,69.7,71.4,64.6,68.1z"/>
		<path fill="#35979C" d="M62.2,37.1c0.6-0.6,2.4-0.5,2.5,0.6C64,38.3,62.2,38.1,62.2,37.1z"/>
		<path fill="#35979C" d="M67.6,37.7c0.2-1,0.8-1.2,1.7-0.6C69.1,38.1,68.4,38.3,67.6,37.7z"/>
		<path fill="#35979C" d="M50.8,52.8c1.2-0.2,2.4,1.4,2.1,2.5C51.8,55.6,50.3,53.9,50.8,52.8z"/>
		<path fill="#35979C" d="M73,52.6c0.3-0.2,0.9-0.7,1.2-1c2.6,0.4,5.1,1.3,7.6,2.3c2.1,0.5,1.5,4.2-0.6,4c-2.6-0.4-5.3-1.3-7.7-2.4
			C72.4,55,72.4,53.5,73,52.6 M74,53.4c2.1,1.8,5,2.2,7.6,2.9C79.6,54.3,76.6,54,74,53.4z"/>
	</g>
	<g id="_x23_c7dfffff">
		<path fill="#AEE5E5" d="M71.2,9.2c1.1-0.2,1.5,0.2,1.1,1.2C71.2,10.6,70.8,10.3,71.2,9.2z"/>
		<path fill="#AEE5E5" d="M73.6,11.7c1.2-0.1,2.2,1.5,1.7,2.6C74,14.7,72.9,12.7,73.6,11.7z"/>
		<path fill="#AEE5E5" d="M21.7,14.1c3.6-0.3,5.8,4.4,3.5,7.1c-1.9,2.6-6.4,1.8-7.4-1.2C16.8,17.2,18.9,14.1,21.7,14.1 M20.2,16.2
			c-1.5,1.1-1.3,3.9,0.5,4.6c1.5,0.9,3.9-0.5,3.7-2.4C24.7,16.3,21.9,14.8,20.2,16.2z"/>
		<path fill="#AEE5E5" d="M75.9,16.1c1.2-0.5,2.2,2.5,0.9,2.8C75.7,18.5,75.3,17.1,75.9,16.1z"/>
		<path fill="#AEE5E5" d="M76.9,20.7c1.5-0.7,2,2.6,0.6,2.9C76.4,23.3,76.2,21.6,76.9,20.7z"/>
		<path fill="#AEE5E5" d="M56.5,23.9c0.9-0.5,1.7-0.5,2.6-0.1C59.6,25.8,54.2,25.8,56.5,23.9z"/>
		<path fill="#AEE5E5" d="M60.5,24.7c1.3-0.4,2.6,1.6,1.9,2.7C61.2,27.7,60,25.8,60.5,24.7z"/>
		<path fill="#AEE5E5" d="M77,25.5c1.7-0.9,1.5,2.6,0.2,2.9C75.9,28.1,76.3,26.2,77,25.5z"/>
		<path fill="#AEE5E5" d="M55,26.3c1.2,0.3,0.4,3-0.8,2.6C53.7,28.1,54.1,26.8,55,26.3z"/>
		<path fill="#AEE5E5" d="M62.3,29.4c1.9-1.1,1.3,3.6-0.4,2.7C61.5,31.1,61.5,30.2,62.3,29.4z"/>
		<path fill="#AEE5E5" d="M76,30.1c1.2,0.2,0.2,2.9-0.9,2.6C74.6,31.9,75.2,30.6,76,30.1z"/>
		<path fill="#AEE5E5" d="M50.4,43.3c1.4,0.3,0.4,3.3-0.9,2.8C49,45.2,49.4,43.7,50.4,43.3z"/>
		<path fill="#AEE5E5" d="M34.1,56.4c9.5-3.3,19.3-6.1,28.9-9.4c0,6.2-0.1,12.4,0,18.5C53.3,62.9,43.8,59.5,34.1,56.4 M50.8,52.8
			c-0.5,1.1,0.9,2.8,2.1,2.5C53.3,54.2,52,52.6,50.8,52.8z"/>
		<path fill="#AEE5E5" d="M65,47.1c7,2.3,14,4.5,21,6.7c2.5,0.9,5.2,1.3,7.4,2.7c-9.5,3-19,6-28.4,9.2C65,59.5,65,53.3,65,47.1
			 M73,52.6c-0.6,0.9-0.6,2.4,0.5,2.9c2.4,1.2,5,2,7.7,2.4c2.1,0.2,2.7-3.5,0.6-4c-2.5-1-5-1.9-7.6-2.3C73.9,51.9,73.3,52.3,73,52.6
			z"/>
	</g>
</g>
</svg>
