<?xml version="1.0" encoding="UTF-8" ?>
<svg width="621pt" height="196pt" viewBox="0 0 621 196" version="1.1"
    xmlns="http://www.w3.org/2000/svg">
    <g id="#ffffffff">
        <path fill="#ffffff" opacity="1.00"
            d=" M 290.70 0.00 L 292.04 0.00 C 299.83 0.28 306.97 7.00 306.95 14.94 C 307.04 49.98 307.01 85.02 306.97 120.06 C 306.98 139.02 299.71 157.90 286.78 171.80 C 273.25 186.69 253.51 195.58 233.41 196.00 L 230.77 196.00 C 207.43 195.66 184.72 183.65 171.30 164.57 C 152.28 138.60 152.23 100.33 171.63 74.56 C 183.44 58.54 202.45 48.63 222.11 46.61 C 240.64 44.69 260.59 47.41 275.99 58.58 C 276.04 44.05 275.93 29.53 276.04 15.01 C 275.99 7.12 282.98 0.45 290.70 0.00 M 223.51 77.85 C 209.03 80.57 196.38 91.14 191.08 104.88 C 186.01 117.56 187.34 132.59 194.62 144.16 C 201.35 155.12 213.11 162.85 225.89 164.54 C 238.61 166.40 252.05 162.29 261.52 153.58 C 271.16 144.96 276.60 131.91 275.92 118.99 C 275.43 106.24 268.98 93.91 258.84 86.17 C 248.99 78.47 235.76 75.40 223.51 77.85 Z" />
        <path fill="#ffffff" opacity="1.00"
            d=" M 36.68 56.59 C 53.71 46.32 74.93 43.40 94.14 48.53 C 110.56 52.79 125.35 62.92 135.38 76.60 C 145.64 90.42 150.83 107.89 149.82 125.07 C 148.89 144.75 139.67 163.82 124.93 176.88 C 111.75 188.82 94.18 195.58 76.43 196.00 L 73.76 196.00 C 55.70 195.63 37.83 188.67 24.53 176.39 C 9.37 162.76 0.41 142.73 0.00 122.37 L 0.00 119.74 C 0.32 94.21 14.63 69.47 36.68 56.59 M 66.51 77.85 C 50.92 80.76 37.51 92.83 32.98 108.03 C 28.83 121.20 31.40 136.26 39.74 147.27 C 47.44 157.71 59.95 164.40 72.91 164.92 C 85.85 165.62 98.92 160.19 107.56 150.55 C 116.30 141.06 120.42 127.58 118.53 114.82 C 116.97 103.32 110.56 92.60 101.23 85.71 C 91.45 78.34 78.51 75.45 66.51 77.85 Z" />
        <path fill="#ffffff" opacity="1.00"
            d=" M 356.43 53.50 C 372.60 45.61 391.67 43.94 408.99 48.76 C 427.18 53.70 443.23 65.88 453.00 81.99 C 461.06 95.10 464.84 110.76 463.76 126.10 C 462.57 145.42 453.41 164.05 438.93 176.88 C 425.74 188.82 408.17 195.58 390.41 196.00 L 387.79 196.00 C 374.78 195.66 361.82 192.14 350.65 185.40 C 334.53 175.85 322.24 160.04 317.05 142.02 C 312.45 126.32 313.17 109.09 319.13 93.85 C 325.88 76.33 339.50 61.60 356.43 53.50 M 380.53 77.85 C 366.04 80.57 353.38 91.14 348.08 104.88 C 342.72 118.25 344.54 134.21 352.83 146.01 C 360.25 156.85 372.75 164.03 385.88 164.86 C 397.97 165.78 410.33 161.39 419.11 153.04 C 428.39 144.42 433.58 131.64 432.92 118.99 C 432.43 106.23 425.98 93.90 415.83 86.17 C 405.99 78.48 392.77 75.40 380.53 77.85 Z" />
        <path fill="#ffffff" opacity="1.00"
            d=" M 507.63 56.62 C 522.58 47.61 540.76 44.20 557.97 47.02 C 575.06 49.69 591.04 58.61 602.40 71.65 C 614.03 84.78 620.59 102.10 621.00 119.61 L 621.00 122.28 C 620.62 140.31 613.67 158.14 601.44 171.42 C 587.81 186.61 567.77 195.59 547.39 196.00 L 544.76 196.00 C 534.21 195.67 523.69 193.41 514.15 188.85 C 498.45 181.53 485.49 168.56 478.16 152.87 C 470.55 136.84 469.01 118.06 473.77 100.98 C 478.78 82.56 491.22 66.34 507.63 56.62 M 537.53 77.85 C 521.93 80.75 508.51 92.82 503.98 108.03 C 499.83 121.20 502.40 136.25 510.74 147.27 C 518.45 157.73 530.99 164.42 543.98 164.92 C 556.67 165.58 569.50 160.36 578.12 151.02 C 586.42 142.25 590.77 129.93 589.86 117.89 C 589.06 105.55 582.71 93.73 572.89 86.22 C 563.04 78.49 549.79 75.40 537.53 77.85 Z" />
    </g>
</svg>
