<?xml version="1.0" encoding="UTF-8" ?>
<svg width="300pt" height="131pt" viewBox="0 0 300 131" version="1.1"
    xmlns="http://www.w3.org/2000/svg">
    <g id="#8e8f8fff">
        <path fill="#8e8f8f" opacity="1.00"
            d=" M 133.06 22.93 C 132.94 19.22 136.05 15.18 139.99 15.46 C 143.49 15.19 147.06 18.38 146.74 21.98 C 146.76 38.00 146.75 54.03 146.75 70.05 C 147.24 86.97 132.18 101.74 115.75 103.21 C 104.99 104.02 94.12 99.01 87.47 90.58 C 76.71 77.88 77.73 56.58 90.52 45.60 C 101.89 35.08 120.40 33.55 133.07 42.62 C 133.07 36.06 133.02 29.49 133.06 22.93 M 105.47 51.74 C 98.80 54.80 94.06 61.68 93.62 69.01 C 93.03 79.56 102.21 89.91 112.97 89.65 C 123.23 90.28 132.72 81.27 133.07 71.07 C 133.61 61.88 126.84 53.19 118.15 50.64 C 113.95 49.98 109.39 49.84 105.47 51.74 Z" />
        <path fill="#8e8f8f" opacity="1.00"
            d=" M 178.43 38.67 C 196.97 34.50 216.26 50.23 217.35 68.89 C 218.84 84.00 208.21 98.90 193.80 103.17 C 183.55 106.03 171.85 104.37 163.43 97.64 C 151.66 89.04 147.68 72.17 153.14 58.87 C 157.20 48.23 167.44 40.81 178.43 38.67 M 181.67 51.87 C 172.96 52.95 165.44 60.29 164.36 69.03 C 163.06 79.06 170.78 89.40 180.87 90.77 C 189.26 92.31 198.41 87.59 201.81 79.72 C 205.06 73.44 203.87 65.62 199.88 59.96 C 195.63 54.52 188.62 51.10 181.67 51.87 Z" />
        <path fill="#8e8f8f" opacity="1.00"
            d=" M 248.47 38.59 C 266.65 34.76 285.34 49.92 286.97 68.08 C 288.93 83.92 277.43 99.91 261.99 103.57 C 252.66 105.68 242.29 104.31 234.44 98.62 C 221.82 90.30 216.86 72.59 222.86 58.81 C 226.97 48.06 237.36 40.67 248.47 38.59 M 251.57 51.85 C 241.23 52.90 232.55 63.04 234.03 73.51 C 235.18 84.34 246.34 93.06 257.17 90.72 C 266.77 89.21 274.42 79.66 273.34 69.92 C 272.65 59.24 262.08 50.79 251.57 51.85 Z" />
    </g>
    <g id="#a3498bff">
        <path fill="#a3498b" opacity="1.00"
            d=" M 41.20 38.22 C 55.90 36.42 70.73 46.35 75.59 60.16 C 79.10 69.91 77.84 81.38 71.90 89.92 C 66.70 97.56 58.22 103.09 49.00 104.25 C 41.99 104.95 34.61 104.19 28.36 100.71 C 19.53 95.94 12.61 87.06 11.41 76.95 C 9.75 67.68 12.17 57.56 18.43 50.42 C 24.00 43.49 32.52 39.46 41.20 38.22 M 42.56 51.80 C 35.19 52.51 28.23 57.57 25.77 64.63 C 22.80 72.17 25.46 81.23 31.54 86.42 C 36.31 90.38 43.04 92.09 49.06 90.42 C 58.69 88.27 65.79 77.65 63.61 67.95 C 61.73 58.39 52.30 51.10 42.56 51.80 Z" />
    </g>
</svg>
