<?xml version="1.0" encoding="utf-8"?>
<!-- Generator: Adobe Illustrator 21.0.0, SVG Export Plug-In . SVG Version: 6.00 Build 0)  -->
<svg version="1.0" id="Layer_1"
	 xmlns="http://www.w3.org/2000/svg" xmlns:xlink="http://www.w3.org/1999/xlink" x="0px" y="0px" width="24px" height="24px"
	 viewBox="0 0 24 24" enable-background="new 0 0 24 24" xml:space="preserve">
<g>
	<path d="M4,21c-0.2,0-0.5-0.1-0.7-0.3c-0.4-0.4-0.4-0.9,0-1.3L19.5,3.3c0.4-0.4,0.9-0.4,1.3,0s0.4,0.9,0,1.3L4.7,20.7
		C4.5,20.9,4.3,21,4,21z"/>
	<path d="M20.2,21c-0.2,0-0.5-0.1-0.7-0.3L3.4,4.6C3,4.2,3,3.6,3.4,3.3s0.9-0.4,1.3,0l16.1,16.1c0.4,0.4,0.4,0.9,0,1.3
		C20.7,20.9,20.4,21,20.2,21z"/>
</g>
</svg>
