<?xml version="1.0" encoding="utf-8"?>
<!-- Generator: Adobe Illustrator 21.0.0, SVG Export Plug-In . SVG Version: 6.00 Build 0)  -->
<svg version="1.0" id="Layer_1" xmlns="http://www.w3.org/2000/svg" x="0px" y="0px" width="24px"
	height="24px" viewBox="0 0 24 24" enable-background="new 0 0 24 24" xml:space="preserve">
<g>
	<g>
		<g>
			<path d="M20.7,15.1c-0.2-0.2-0.4-0.3-0.7-0.3h-5l-1.5,1.5c-0.4,0.4-0.9,0.6-1.5,0.6c-0.6,0-1.1-0.2-1.5-0.6l-1.5-1.5H4
				c-0.3,0-0.5,0.1-0.7,0.3C3.1,15.3,3,15.5,3,15.8v3.5c0,0.3,0.1,0.5,0.3,0.7c0.2,0.2,0.4,0.3,0.7,0.3H20c0.3,0,0.5-0.1,0.7-0.3
				c0.2-0.2,0.3-0.4,0.3-0.7v-3.5C21,15.5,20.9,15.3,20.7,15.1z M16.6,18.7c-0.1,0.1-0.3,0.2-0.5,0.2c-0.2,0-0.3-0.1-0.5-0.2
				c-0.1-0.1-0.2-0.3-0.2-0.5c0-0.2,0.1-0.3,0.2-0.5c0.1-0.1,0.3-0.2,0.5-0.2s0.3,0.1,0.5,0.2c0.1,0.1,0.2,0.3,0.2,0.5
				C16.8,18.4,16.8,18.6,16.6,18.7z M19.4,18.7c-0.1,0.1-0.3,0.2-0.5,0.2c-0.2,0-0.3-0.1-0.5-0.2c-0.1-0.1-0.2-0.3-0.2-0.5
				c0-0.2,0.1-0.3,0.2-0.5c0.1-0.1,0.3-0.2,0.5-0.2c0.2,0,0.3,0.1,0.5,0.2c0.1,0.1,0.2,0.3,0.2,0.5C19.6,18.4,19.5,18.6,19.4,18.7z"
				/>
			<path d="M11.5,15.3c0.1,0.1,0.3,0.2,0.5,0.2c0.2,0,0.4-0.1,0.5-0.2l4.8-4.8c0.2-0.2,0.3-0.5,0.2-0.8c-0.1-0.3-0.3-0.4-0.6-0.4
				h-2.8V4.4c0-0.2-0.1-0.3-0.2-0.5c-0.1-0.1-0.3-0.2-0.5-0.2h-2.8c-0.2,0-0.3,0.1-0.5,0.2C10,4,9.9,4.2,9.9,4.4v4.8H7.2
				c-0.3,0-0.5,0.1-0.6,0.4c-0.1,0.3-0.1,0.5,0.2,0.8L11.5,15.3z"/>
		</g>
	</g>
</g>
<g>
	<text transform="matrix(1 0 0 1 512 512)"><tspan x="0" y="0" font-family="'MyriadPro-Regular'" font-size="12px">heig</tspan><tspan x="22.2" y="0" font-family="'MyriadPro-Regular'" font-size="12px">h</tspan><tspan x="28.8" y="0" font-family="'MyriadPro-Regular'" font-size="12px">t: si</tspan><tspan x="45.4" y="0" font-family="'MyriadPro-Regular'" font-size="12px">z</tspan><tspan x="50.4" y="0" font-family="'MyriadPro-Regular'" font-size="12px">e_18_</tspan><tspan x="80.7" y="0" font-family="'MyriadPro-Regular'" font-size="12px">w</tspan><tspan x="89.1" y="0" font-family="'MyriadPro-Regular'" font-size="12px">,</tspan><tspan x="0" y="14.4" font-family="'MyriadPro-Regular'" font-size="12px">                            width: si</tspan><tspan x="112.9" y="14.4" font-family="'MyriadPro-Regular'" font-size="12px">z</tspan><tspan x="117.9" y="14.4" font-family="'MyriadPro-Regular'" font-size="12px">e_18_</tspan><tspan x="148.2" y="14.4" font-family="'MyriadPro-Regular'" font-size="12px">w</tspan><tspan x="156.6" y="14.4" font-family="'MyriadPro-Regular'" font-size="12px">,</tspan></text>
</g>
</svg>
