<?xml version="1.0" encoding="utf-8"?>
<!-- Generator: Adobe Illustrator 25.2.0, SVG Export Plug-In . SVG Version: 6.00 Build 0)  -->
<svg version="1.0" id="Layer_1" xmlns="http://www.w3.org/2000/svg" xmlns:xlink="http://www.w3.org/1999/xlink" x="0px" y="0px"
	 viewBox="0 0 24 24" enable-background="new 0 0 24 24" xml:space="preserve">
<g>
	<path stroke="#000000" stroke-width="0.5" stroke-miterlimit="10" d="M3,7.4v9.1c0,1.3,1,2.3,2.3,2.3h7.4c1.3,0,2.3-1,2.3-2.3V15
		c0-0.2-0.2-0.5-0.5-0.5c-0.2,0-0.5,0.2-0.5,0.5v1.5c0,0.8-0.6,1.4-1.4,1.4H5.3c-0.8,0-1.4-0.6-1.4-1.4V7.4C3.9,6.6,4.5,6,5.3,6h7.4
		c0.8,0,1.4,0.6,1.4,1.4v1.5c0,0.2,0.2,0.5,0.5,0.5s0.5-0.2,0.5-0.5V7.4c0-1.3-1-2.3-2.3-2.3H5.3C4,5.2,3,6.2,3,7.4z"/>
	<path stroke="#000000" stroke-width="0.5" stroke-miterlimit="10" d="M17.1,15.4c0.1,0.1,0.2,0.1,0.3,0.1s0.2,0,0.3-0.1l3.1-3.1
		c0.2-0.2,0.2-0.5,0-0.6l-3.1-3.1c-0.2-0.2-0.5-0.2-0.6,0c-0.2,0.2-0.2,0.5,0,0.6l2.3,2.3H11c-0.2,0-0.5,0.2-0.5,0.5
		c0,0.2,0.2,0.5,0.5,0.5h8.4l-2.3,2.3C17,14.9,17,15.2,17.1,15.4z"/>
</g>
</svg>
